<svg xmlns="http://www.w3.org/2000/svg" xmlns:xlink="http://www.w3.org/1999/xlink" viewBox="0 0 24 30" version="1.1" x="0px" y="0px"><title>Atom / Icon / pencil</title><desc>Created with Sketch.</desc><g stroke="none" stroke-width="1" fill="none" fill-rule="evenodd"><rect fill-rule="nonzero" x="0" y="0" width="24" height="24"/><g transform="translate(1.000000, 1.000000)" fill="#000000" fill-rule="nonzero"><path d="M10,2 L10,3 L2.5,3 C1.67157288,3 1,3.67157288 1,4.5 L1,18.5 C1,19.3284271 1.67157288,20 2.5,20 L16.5,20 C17.3284271,20 18,19.3284271 18,18.5 L18,11 L19,11 L19,18.5 C19,19.8807119 17.8807119,21 16.5,21 L2.5,21 C1.11928813,21 -1.04083409e-15,19.8807119 0,18.5 L0,4.5 C-1.38777878e-16,3.11928813 1.11928813,2 2.5,2 L10,2 Z M19.2928932,4.5 L16.5,1.70710678 L5,13.2071068 L5,16 L7.79289322,16 L19.2928932,4.5 Z M4,17 L4,12.7928932 L16.5,0.292893219 L20.7071068,4.5 L8.20710678,17 L4,17 Z"/></g></g><text x="0" y="39" fill="#000000" font-size="5px" font-weight="bold" font-family="'Helvetica Neue', Helvetica, Arial-Unicode, Arial, Sans-serif"></text><text x="0" y="44" fill="#000000" font-size="5px" font-weight="bold" font-family="'Helvetica Neue', Helvetica, Arial-Unicode, Arial, Sans-serif"></text></svg>