<svg xmlns:x="http://ns.adobe.com/Extensibility/1.0/" xmlns:i="http://ns.adobe.com/AdobeIllustrator/10.0/" xmlns:graph="http://ns.adobe.com/Graphs/1.0/" xmlns="http://www.w3.org/2000/svg" xmlns:xlink="http://www.w3.org/1999/xlink" version="1.1" x="0px" y="0px" viewBox="0 0 100 125" style="enable-background:new 0 0 100 100;" xml:space="preserve"><metadata><sfw xmlns="http://ns.adobe.com/SaveForWeb/1.0/"><slices/><sliceSourceBounds bottomLeftOrigin="true" height="82.70703" width="89.73291" x="-7.3667" y="-15.81348"/></sfw></metadata><path d="M92.86621,21.47998c-1.10449,0-2,0.89551-2,2v63.3335l-73.31445,0.00098c-4.35986-0.15625-7.89795-3.69434-8.05518-8.05371  c-0.16504-4.60742,3.44824-8.49023,8.05518-8.65527c0.06274-0.00226,0.12164-0.01685,0.18274-0.02472  c0.05951-0.00769,0.11993-0.01123,0.17761-0.02399c0.07007-0.0155,0.13568-0.04034,0.2027-0.06293  c0.05579-0.0188,0.1131-0.03351,0.16656-0.05701c0.06561-0.02875,0.12543-0.06622,0.18707-0.10156  c0.04883-0.02802,0.09998-0.05206,0.14606-0.08392c0.05981-0.04132,0.11249-0.09064,0.16736-0.13806  c0.04102-0.03552,0.08514-0.06714,0.12317-0.10583c0.05194-0.05286,0.09546-0.11285,0.1413-0.1712  c0.03253-0.04138,0.06897-0.0791,0.09821-0.12299c0.0423-0.06354,0.07452-0.13336,0.1095-0.20172  c0.02332-0.04559,0.0517-0.08789,0.07153-0.13544c0.0321-0.07684,0.05219-0.15906,0.07458-0.24036  c0.01215-0.04425,0.03046-0.08569,0.03967-0.1311c0.02606-0.12878,0.04016-0.26184,0.04016-0.39819v-42.6665h51.3335  c1.10449,0,2-0.89551,2-2s-0.89551-2-2-2h-51.3335v-11.3335c0-1.10449-0.89551-2-2-2c-6.80811,0-12.34668,5.53857-12.34668,12.36035  v57.95703c0,0.01074,0,0.02148,0,0.03223c0.00061,0.46442,0.16602,0.88617,0.43207,1.22522  c0.60681,6.08221,5.6618,10.90833,11.91461,11.1322h75.38623c1.10449,0,2-0.89551,2-2v-65.3335  C94.86621,22.37549,93.9707,21.47998,92.86621,21.47998z M9.1333,20.45312c0-3.91309,2.70703-7.20605,6.34668-8.10449v11.09131  V66.2666c-2.42383,0.39453-4.61328,1.49707-6.34668,3.08887V20.45312z M66.4834,48.32227l1.08008,8.38672  c0.0957,0.74121,0.59668,1.36719,1.29883,1.62305c0.22363,0.08203,0.4541,0.12109,0.68457,0.12109  c0.49316,0,0.97949-0.18262,1.35449-0.52832l6.22656-5.7334c0.23535-0.2168,0.41602-0.4873,0.52539-0.78809l13.12012-36.07959  c0.36816-1.0127-0.13184-2.13477-1.13086-2.53809l-7.2002-2.90674c-0.50293-0.20361-1.06641-0.19336-1.5625,0.02734  S80,10.53955,79.81445,11.04932L66.58789,47.38184C66.47852,47.68262,66.44238,48.00488,66.4834,48.32227z M82.86426,14.36279  l3.48926,1.40869L74.06055,49.57812l-3.02441,2.78418l-0.52344-4.06934L82.86426,14.36279z M85.51953,72.71973H68.4668  c-1.10449,0-2-0.89551-2-2s0.89551-2,2-2h17.05273c1.10449,0,2,0.89551,2,2S86.62402,72.71973,85.51953,72.71973z   M81.05371,75.33301c1.10449,0,2,0.89551,2,2s-0.89551,2-2,2H68.4668c-1.10449,0-2-0.89551-2-2s0.89551-2,2-2H81.05371z   M33.30664,53.17285v15.54688h23.55957V52.90625c0-1.10449,0.89551-2,2-2s2,0.89551,2,2v17.81348c0,1.10449-0.89551,2-2,2H31.30664  c-1.10449,0-2-0.89551-2-2V53.17285c0-1.10449,0.89551-2,2-2S33.30664,52.06836,33.30664,53.17285z M61.71777,48.48047  c-0.32715,0-0.65918-0.08008-0.96582-0.25l-15.67212-8.66522l-15.65845,8.66522c-0.30664,0.16992-0.63916,0.25-0.96631,0.25  c-0.7041,0-1.38672-0.37207-1.75195-1.03125c-0.53467-0.9668-0.18457-2.18359,0.78174-2.71875l16.62695-9.20068  c0.01001-0.00555,0.02075-0.00781,0.03082-0.01318c0.06299-0.03333,0.12946-0.05731,0.19543-0.08374  c0.05786-0.02332,0.1145-0.05084,0.1734-0.06836c0.0517-0.01532,0.10529-0.02155,0.15808-0.03271  c0.07446-0.01569,0.14825-0.03467,0.22314-0.04169c0.04791-0.00452,0.0965-0.00006,0.14478-0.00116  c0.07965-0.00159,0.15924-0.00598,0.23804,0.00183c0.05243,0.00507,0.10406,0.0199,0.15631,0.02917  c0.07483,0.01349,0.14984,0.02417,0.22253,0.04596c0.04895,0.01471,0.09595,0.03827,0.14423,0.05688  c0.07501,0.02893,0.15002,0.05664,0.22125,0.09454c0.00916,0.00488,0.01892,0.00696,0.02802,0.01196l16.63965,9.20117  c0.9668,0.53418,1.31738,1.75098,0.78223,2.71777C63.10547,48.1084,62.42188,48.48047,61.71777,48.48047z"/><text x="0" y="115" fill="#000000" font-size="5px" font-weight="bold" font-family="'Helvetica Neue', Helvetica, Arial-Unicode, Arial, Sans-serif"></text><text x="0" y="120" fill="#000000" font-size="5px" font-weight="bold" font-family="'Helvetica Neue', Helvetica, Arial-Unicode, Arial, Sans-serif"></text></svg>