<svg xmlns="http://www.w3.org/2000/svg" xmlns:xlink="http://www.w3.org/1999/xlink" version="1.1" x="0px" y="0px" viewBox="0 0 32 40" enable-background="new 0 0 32 32" xml:space="preserve"><g><path d="M31,14c-0.219,0-0.44-0.071-0.625-0.219l-3-2.4c-0.431-0.346-0.501-0.975-0.156-1.406c0.345-0.432,0.974-0.5,1.406-0.156   l3,2.4c0.431,0.346,0.501,0.975,0.156,1.406C31.583,13.872,31.292,14,31,14z"/></g><g><path d="M1,14c-0.293,0-0.584-0.128-0.781-0.375c-0.345-0.432-0.275-1.061,0.156-1.406l3-2.4c0.43-0.345,1.061-0.276,1.406,0.156   c0.345,0.432,0.275,1.061-0.156,1.406l-3,2.4C1.44,13.929,1.22,14,1,14z"/></g><g><path d="M16.001,27c-0.265,0-0.52-0.105-0.707-0.293l-6.75-6.75c-0.996-0.99-1.546-2.307-1.546-3.707s0.55-2.717,1.548-3.709   C9.539,11.548,10.852,11,12.241,11l0,0c1.402,0,2.723,0.548,3.717,1.543l0.043,0.043l0.039-0.038   c0.672-0.673,1.502-1.147,2.405-1.377c1.79-0.458,3.711,0.069,5.014,1.372c0.995,0.995,1.543,2.312,1.543,3.707   s-0.548,2.712-1.542,3.707l-0.766,0.755l-5.984,5.994C16.521,26.895,16.267,27,16.001,27L16.001,27z M12.241,13   c-0.855,0-1.666,0.34-2.282,0.957c-0.62,0.616-0.96,1.43-0.96,2.293s0.34,1.677,0.958,2.291l6.044,6.044l6.048-6.047   c0.612-0.612,0.952-1.427,0.952-2.288s-0.34-1.676-0.958-2.293c-0.818-0.818-1.98-1.135-3.105-0.849   c-0.554,0.142-1.066,0.435-1.48,0.849l-0.746,0.755c-0.375,0.381-1.048,0.381-1.423,0l-0.75-0.76C13.927,13.34,13.109,13,12.241,13   z"/></g><g><path d="M26,32H6c-1.654,0-3-1.346-3-3V10.6c0-0.304,0.138-0.591,0.375-0.781l12-9.6c0.365-0.291,0.884-0.291,1.249,0l12,9.6   C28.862,10.009,29,10.296,29,10.6V29C29,30.654,27.654,32,26,32z M5,11.08V29c0,0.552,0.449,1,1,1h20c0.551,0,1-0.448,1-1V11.08   l-11-8.8L5,11.08z"/></g><g><path d="M26,10c-0.223,0-0.444-0.074-0.625-0.219l-4-3.2C21.138,6.391,21,6.104,21,5.8V2c0-1.103,0.897-2,2-2h2   c1.103,0,2,0.897,2,2v7c0,0.385-0.22,0.734-0.567,0.901C26.295,9.968,26.147,10,26,10z M23,5.319l2,1.6V2.003L23,2V5.319z M25,2h1   H25L25,2L25,2z"/></g><text x="0" y="47" fill="#000000" font-size="5px" font-weight="bold" font-family="'Helvetica Neue', Helvetica, Arial-Unicode, Arial, Sans-serif"></text><text x="0" y="52" fill="#000000" font-size="5px" font-weight="bold" font-family="'Helvetica Neue', Helvetica, Arial-Unicode, Arial, Sans-serif"></text></svg>