<svg xmlns="http://www.w3.org/2000/svg" xmlns:xlink="http://www.w3.org/1999/xlink" version="1.1" x="0px" y="0px" viewBox="0 0 34 42.5" enable-background="new 0 0 34 34" xml:space="preserve"><g><path d="M29.08082,13.01865c0-0.54999-0.45001-1-1-1h-22c-0.54999,0-1,0.45001-1,1v6.72998c0,0.13806,0.11194,0.25,0.25,0.25h23.5   c0.13806,0,0.25-0.11194,0.25-0.25V13.01865z M11.08082,16.50864c0,0.27002-0.21997,0.5-0.5,0.5h-1c-0.27002,0-0.5-0.22998-0.5-0.5   v-0.96997c0-0.28003,0.22998-0.5,0.5-0.5h1c0.28003,0,0.5,0.21997,0.5,0.5V16.50864z M18.05085,16.50864   c0,0.27002-0.22003,0.5-0.5,0.5h-1c-0.27002,0-0.5-0.22998-0.5-0.5v-0.96997c0-0.28003,0.22998-0.5,0.5-0.5h1   c0.27997,0,0.5,0.21997,0.5,0.5V16.50864z M25.08082,16.50864c0,0.27002-0.21997,0.5-0.5,0.5h-1c-0.27002,0-0.5-0.22998-0.5-0.5   v-0.96997c0-0.28003,0.22998-0.5,0.5-0.5h1c0.28003,0,0.5,0.21997,0.5,0.5V16.50864z"/><path d="M29.08082,31.01865v-8.77002c0-0.13806-0.11194-0.25-0.25-0.25h-23.5c-0.13806,0-0.25,0.11194-0.25,0.25v8.77002   c0,1.10999,0.90002,2,2,2h6.78998c0.13806,0,0.25-0.11194,0.25-0.25v-5.70001c0-0.54999,0.45001-1,1-1h4c0.54999,0,1,0.45001,1,1   v5.70001c0,0.13806,0.11194,0.25,0.25,0.25h6.71002C28.1808,33.01865,29.08082,32.11863,29.08082,31.01865z"/><path d="M1.25855,9.98136H32.7414c0.24805,0,0.35327-0.30798,0.15485-0.45313L17.15479,1.03171   c-0.09174-0.06714-0.2179-0.06714-0.30963,0L1.10371,9.52823C0.90534,9.67337,1.01057,9.98136,1.25855,9.98136z"/></g><text x="0" y="49" fill="#000000" font-size="5px" font-weight="bold" font-family="'Helvetica Neue', Helvetica, Arial-Unicode, Arial, Sans-serif"></text><text x="0" y="54" fill="#000000" font-size="5px" font-weight="bold" font-family="'Helvetica Neue', Helvetica, Arial-Unicode, Arial, Sans-serif"></text></svg>