<svg xmlns="http://www.w3.org/2000/svg" xmlns:xlink="http://www.w3.org/1999/xlink" version="1.1" x="0px" y="0px" viewBox="0 0 1024 1280" style="enable-background:new 0 0 1024 1024;" xml:space="preserve"><g><g><path d="M517.3,857.1c-13.8-4.3-27.6-8.9-41.1-14c-6.7-2.5-13.4-5.1-20.1-7.9c-1.5-0.6-3-1.2-4.5-1.8    c-2.1-0.9,1.6,0.7,1.6,0.7c-0.8-0.4-1.7-0.7-2.5-1.1c-3.3-1.4-6.7-2.9-10-4.4c-24.5-11-48.3-23.4-71.2-37.3    c-11-6.7-21.8-13.7-32.3-21c-5.1-3.5-10.1-7.2-15.1-10.9c-2.5-1.8-4.9-3.7-7.4-5.6c-2.8-2.1,3.2,2.5-0.3-0.2    c-1.4-1.1-2.9-2.3-4.3-3.4c-18.9-15-36.9-31.2-53.8-48.5c-8-8.2-15.8-16.6-23.3-25.3c-3.8-4.4-7.5-8.9-11.2-13.4    c-1.8-2.2-3.5-4.4-5.2-6.6c-0.5-0.6-3.3-4.3-1.2-1.5c2.1,2.7-0.9-1.1-1.5-1.9c-13.3-17.6-25.5-35.9-36.5-55    c-5.3-9.2-10.3-18.6-15.1-28.1c-2.3-4.6-4.5-9.3-6.6-13.9c-1.1-2.3-2.1-4.6-3.1-7c-0.5-1.1-0.9-2.2-1.4-3.3    c-2.1-4.8,1.5,3.6-0.1-0.4c-7.6-18.6-14.2-37.5-19.4-56.9c-2.5-9.3-4.7-18.7-6.5-28.2c-0.9-4.6-1.7-9.2-2.4-13.8    c-0.4-2.3-0.7-4.6-1-6.8c-0.1-0.5-0.1-0.9-0.2-1.4c-0.4-3.1,0.4,2.7,0.3,2.6c-0.1-1.2-0.3-2.4-0.5-3.6c-2.2-17.9-3.1-36-2.5-54.1    c0.3-8.7,0.9-17.3,1.9-26c0.1-1,0.2-1.9,0.3-2.9c0.1-0.6,0.1-1.1,0.2-1.7c0.4-3-0.4,3-0.4,2.8c0.4-2.2,0.6-4.4,1-6.6    c0.7-4.1,1.4-8.1,2.2-12.2c3.3-16.1,8.5-31.3,14.3-46.7c0.1-0.2-2.3,5.2-1.1,2.6c0.2-0.4,0.3-0.7,0.5-1.1c0.4-1,0.8-1.9,1.3-2.9    c0.8-1.8,1.6-3.5,2.5-5.3c1.7-3.6,3.6-7.2,5.5-10.7c3.8-6.8,7.9-13.5,12.4-19.8c1-1.5,2.1-2.9,3.1-4.3c0.6-0.8,1.3-1.6,1.8-2.4    c0.1-0.2-3.5,4.4-1.7,2.2c0.3-0.4,0.6-0.8,0.9-1.2c2.5-3.1,5-6.1,7.6-9c5.2-5.8,10.7-11.2,16.6-16.3c2.9-2.5,5.9-4.9,8.9-7.3    c0.2-0.1-4.5,3.4-2.2,1.7c0.4-0.3,0.8-0.6,1.2-0.9c0.7-0.5,1.5-1.1,2.2-1.6c1.6-1.1,3.2-2.3,4.8-3.3c12.6-8.6,26-16.1,39.8-22.6    c3.3-1.6,6.6-3.1,9.9-4.5c-3.8,1.5-0.1,0.1,1.5-0.6c2.1-0.8,4.1-1.6,6.2-2.4c6.7-2.4,13.5-4.6,20.3-6.4c6.7-1.8,13.4-3.2,20.2-4.3    c1.4-0.2,3.1-0.2,4.5-0.7c-0.4,0.1-5,0.6-1.5,0.2c0.8-0.1,1.7-0.2,2.5-0.3c3.1-0.3,6.2-0.6,9.3-0.8c6.2-0.4,12.4-0.4,18.6-0.2    c2.7,0.1,5.4,0.3,8.1,0.5c1.5,0.1,3,0.3,4.6,0.4c0.6,0.1,1.1,0.1,1.7,0.2c3.3,0.4,0,0.1-1.4-0.2c11,2.2,21.8,4,32.5,7.5    c2.5,0.8,5,1.7,7.5,2.6c1.1,0.4,2.3,0.9,3.4,1.3c1.4,0.6,6.6,3,0.5,0.1c4.6,2.1,9.3,4.2,13.8,6.5c8.8,4.6,17.3,9.7,25.5,15.4    c1.9,1.3,3.8,2.7,5.7,4.1c0.9,0.6,1.7,1.3,2.6,1.9c0.4,0.3,0.7,0.6,1.1,0.8c2.9,2.1-3.2-2.5-1.5-1.2c3.5,2.9,7.2,5.8,10.6,8.8    c6.3,5.5,12.3,11.2,18.1,17.2c5,5.1,9.7,10.5,14.3,15.9c1.9,2.3,3.7,4.6,5.6,6.9c2.1,2.7-2.2-2.8-1.6-2.1c0.4,0.6,0.8,1.1,1.3,1.6    c0.7,1,1.4,1.9,2.2,2.9c2.1,2.9,4.2,5.9,6.2,8.9c8.5,12.9,26,12.9,34.5,0c2-3.1,4.2-6.1,6.3-9c0.7-1,1.4-2,2.2-2.9    c3.3-4.3-3.1,4-0.2,0.2c1.9-2.3,3.7-4.7,5.7-7c10-11.9,20.9-23.1,32.6-33.2c3.4-2.9,7.1-5.5,10.3-8.5c-5.2,4.9,0.5-0.4,2.2-1.6    c2-1.5,4.1-2.9,6.1-4.3c8.2-5.6,16.8-10.8,25.6-15.3c2.1-1.1,4.2-2.1,6.4-3.1c1.2-0.6,2.5-1.1,3.7-1.7c0.5-0.2,0.9-0.4,1.4-0.6    c3-1.3-0.4,0.2-1.5,0.6c4.9-1.8,9.8-3.8,14.8-5.5c5.3-1.7,10.7-3.2,16.1-4.5c2.7-0.6,5.4-1.2,8.1-1.7c1.3-0.2,2.6-0.5,3.8-0.7    c1.8-0.3,7.3-0.6,0.8-0.2c11.9-0.8,23.4-1.9,35.3-1.1c3.1,0.2,6.2,0.5,9.3,0.8c0.8,0.1,1.7,0.2,2.5,0.3c2.2,0.2-2.2-0.3-2.2-0.3    c1.6,0.6,4,0.6,5.7,0.9c6.6,1.1,13.2,2.6,19.6,4.3c7.1,1.9,14.1,4.2,21,6.7c1.6,0.6,3.2,1.2,4.9,1.9c1.8,0.7,5.2,1.7,1.5,0.6    c3.9,1.2,7.7,3.4,11.4,5.2c13.4,6.4,26.4,13.8,38.7,22.2c1.6,1.1,3.2,2.2,4.8,3.4c0.7,0.5,1.5,1.1,2.2,1.6    c0.4,0.3,0.8,0.6,1.2,0.9c1.7,1.1-4.4-3.5-1.9-1.5c3,2.4,6,4.8,8.9,7.4c5.8,5.1,11.3,10.6,16.5,16.4c2.5,2.8,5,5.8,7.4,8.7    c2.7,3.4-1.2-1.6-0.8-1c0.5,0.7,1.1,1.4,1.6,2.1c1.2,1.6,2.4,3.3,3.6,5c4.5,6.4,8.6,13,12.3,19.9c1.9,3.4,3.6,6.8,5.3,10.3    c0.8,1.8,1.7,3.5,2.5,5.3c0.4,0.8,0.7,1.7,1.1,2.5c0.2,0.5,0.4,1,0.6,1.4c0.9,1.9-2.2-5.3-1-2.2c2.9,7.4,5.7,14.8,8,22.4    c2.4,8,4.5,16.2,6.2,24.4c0.8,4,1.6,8.1,2.2,12.2c0.3,1.9,0.5,3.9,0.9,5.8c-1.4-8,0,0.1,0.2,2.2c2,17.5,2.4,35.1,1.6,52.7    c-0.4,9.2-1.2,18.3-2.3,27.4c-0.1,1.1-0.3,2.1-0.4,3.2c0.6-7.1,0.3-2.4,0.1-0.8c-0.3,2.4-0.7,4.9-1.1,7.3    c-0.7,4.6-1.6,9.2-2.5,13.8c-3.8,19.2-9,38.1-15.3,56.6c-3.3,9.6-7,19.1-10.8,28.5c-0.8,2,1.2-2.8,1-2.4c-0.3,0.6-0.5,1.2-0.8,1.9    c-0.5,1.1-0.9,2.2-1.4,3.3c-1.1,2.5-2.2,5-3.3,7.4c-2.2,4.8-4.5,9.6-6.9,14.4c-9.6,19.3-20.5,37.9-32.4,55.9    c-6.1,9.1-12.4,18-19.1,26.8c-0.8,1.1-4.2,5.3-0.3,0.4c-0.8,1-1.6,2.1-2.4,3.1c-1.8,2.3-3.7,4.7-5.6,7c-3.6,4.4-7.2,8.7-10.9,13    c-15.5,17.8-32,34.7-49.6,50.5c-9.1,8.2-18.4,16.1-28,23.7c-1.1,0.9-2.2,1.8-3.4,2.6c-3.8,3,2.5-1.9-0.3,0.2c-2.6,2-5.2,4-7.9,5.9    c-5.2,3.8-10.4,7.6-15.6,11.2c-21.5,14.9-43.9,28.3-67,40.4c-12.1,6.3-24.3,12.2-36.8,17.8c-2.9,1.3-5.8,2.6-8.7,3.8    c-0.8,0.4-1.7,0.8-2.5,1.1c0.5-0.2,4.3-1.8,1-0.4c-1.7,0.7-3.4,1.4-5.1,2.1c-6.4,2.6-12.9,5.2-19.4,7.6    c-13.3,5-26.8,9.5-40.5,13.7c-10,3.1-17.4,14.1-14,24.6c3.3,10.1,13.9,17.3,24.6,14c55.3-17,108.9-40.3,158.4-70.5    c44.2-26.9,85.4-59.3,121.4-96.4c33-34,62.1-72.1,85.5-113.3c21.3-37.5,38.3-77.8,49.1-119.6c9.9-38,15-77.8,13.2-117    c-1.7-37.2-9.4-73.4-24.2-107.5c-13.2-30.5-33.4-58.6-58.9-80.1c-19.8-16.7-42.2-30.2-65.8-40.8c-28.4-12.7-58.1-21.1-89.3-22.6    c-47.5-2.4-94.7,13.1-133.5,40.1c-28,19.4-51.9,43.5-72.1,70.8c-2.2,3-4.3,6-6.3,9c11.5,0,23,0,34.5,0    c-14.9-22.4-33.1-43.1-53.5-60.6c-33.7-29-74.1-50.9-118.6-57.2c-61.3-8.7-122.1,10.7-173.1,44.6c-29,19.3-53.1,45.2-70.3,75.5    c-18.1,31.9-28,67.1-32.6,103.3c-4.8,38-2.3,76.7,4.8,114.3c7.8,41.7,22.2,82,40.8,120.1c20.3,41.6,46.5,80.1,76.6,115.2    c33.1,38.6,71.5,72.4,113.2,101.5c46.1,32.1,96.5,57.5,149,77.2c13.6,5.1,27.3,9.7,41.1,14c10,3.1,22.3-3.7,24.6-14    C533.8,870.8,528,860.4,517.3,857.1z"/></g></g><text x="0" y="1039" fill="#000000" font-size="5px" font-weight="bold" font-family="'Helvetica Neue', Helvetica, Arial-Unicode, Arial, Sans-serif">Created by shashank singh</text><text x="0" y="1044" fill="#000000" font-size="5px" font-weight="bold" font-family="'Helvetica Neue', Helvetica, Arial-Unicode, Arial, Sans-serif">from the Noun Project</text></svg>