<svg xmlns="http://www.w3.org/2000/svg" xmlns:xlink="http://www.w3.org/1999/xlink" version="1.1" x="0px" y="0px" viewBox="0 0 90 112.5" enable-background="new 0 0 90 90" xml:space="preserve"><path d="M63.178,55.836l-11.29-11.29l7.4-7.401c0.027-0.027,0.037-0.063,0.061-0.092c0.031-0.023,0.066-0.034,0.094-0.062  c0.603-0.602,2.892-3.931,1.415-5.408l-2.369-2.369c-1.476-1.475-4.806,0.812-5.408,1.414c-0.028,0.028-0.038,0.064-0.062,0.094  c-0.029,0.023-0.065,0.034-0.093,0.062l-7.4,7.401l-0.02-0.019c0,0,0-0.001,0-0.001c-0.001,0-0.002,0-0.002-0.001l-4.393-4.393  c0,0-0.001,0-0.001-0.001s-0.001,0-0.001,0l-2.196-2.197c-0.001,0-0.001,0-0.001,0s0,0,0,0l-2.197-2.197v0l0,0l-2.29-2.29  c-0.375-0.375-1.039-0.375-1.414,0l-5.656,5.656c-0.391,0.391-0.391,1.023,0,1.414l11.101,11.101l-7.211,7.211  c-0.075,0.074-0.132,0.159-0.178,0.25c-0.003,0.007-0.009,0.011-0.013,0.017l-4.421,9.02c-0.185,0.376-0.115,0.827,0.175,1.13  c0.193,0.202,0.456,0.31,0.724,0.31c0.134,0,0.27-0.026,0.398-0.083l9.352-4.062c0.001,0,0.001,0,0.001,0l0.018-0.008  c0.054-0.022,0.09-0.064,0.138-0.096c0.058-0.037,0.121-0.064,0.171-0.114l7.211-7.211l11.29,11.29  c0.195,0.195,0.451,0.293,0.707,0.293s0.512-0.098,0.707-0.293l5.656-5.656C63.568,56.859,63.568,56.227,63.178,55.836z   M57.16,30.722c0.003,0,0.005,0,0.009,0l2.18,2.181c0.006,0.397-0.404,1.344-0.845,2.044l-3.38-3.38  C55.819,31.129,56.759,30.722,57.16,30.722z M29.475,33.445l4.242-4.242l0.876,0.876l-2.314,2.314c-0.391,0.391-0.391,1.023,0,1.414  c0.195,0.195,0.451,0.293,0.707,0.293s0.512-0.098,0.707-0.293l2.314-2.314l0.783,0.784l-2.314,2.314  c-0.391,0.391-0.391,1.023,0,1.414c0.195,0.195,0.451,0.293,0.707,0.293s0.512-0.098,0.707-0.293l2.314-2.314l0.784,0.784  l-2.314,2.314c-0.391,0.391-0.391,1.023,0,1.414c0.195,0.195,0.451,0.293,0.707,0.293s0.512-0.098,0.707-0.293l2.314-2.314  l0.783,0.784l-2.314,2.314c-0.391,0.39-0.391,1.023,0,1.414c0.195,0.195,0.451,0.293,0.707,0.293s0.512-0.098,0.707-0.293  l2.314-2.314l0.783,0.783l-2.313,2.314c-0.391,0.391-0.391,1.023,0,1.414c0.007,0.007,0.017,0.009,0.023,0.016l-1.225,1.225  L29.475,33.445z M40.575,45.96l5.656-5.656l7.4-7.401l3.535,3.535L37.255,56.351c-0.318-0.604-0.786-1.334-1.465-2.103  c-0.673-0.76-1.354-1.242-1.955-1.548L40.575,45.96z M32.507,54.307c0.45,0.156,1.104,0.497,1.785,1.267  c0.692,0.784,1.102,1.498,1.34,2.008l-6.009,2.609L32.507,54.307z M56.814,60.785L46.231,50.202l1.263-1.263  c0.046,0.089,0.093,0.178,0.167,0.252c0.195,0.195,0.451,0.293,0.707,0.293s0.512-0.098,0.707-0.293l2.314-2.314l0.783,0.783  l-2.314,2.314c-0.391,0.391-0.391,1.023,0,1.414c0.195,0.195,0.451,0.293,0.707,0.293s0.512-0.098,0.707-0.293l2.314-2.314  l0.784,0.783l-2.314,2.314c-0.391,0.391-0.391,1.023,0,1.414c0.195,0.195,0.451,0.293,0.707,0.293s0.512-0.098,0.707-0.293  l2.314-2.314l0.784,0.784l-2.314,2.314c-0.391,0.391-0.391,1.023,0,1.414c0.195,0.195,0.451,0.293,0.707,0.293  s0.512-0.098,0.707-0.293l2.314-2.314l0.783,0.783l-2.314,2.314c-0.391,0.391-0.391,1.024,0,1.414  c0.195,0.195,0.451,0.293,0.707,0.293s0.512-0.098,0.707-0.293l2.314-2.314l0.876,0.876L56.814,60.785z"/><text x="0" y="105" fill="#000000" font-size="5px" font-weight="bold" font-family="'Helvetica Neue', Helvetica, Arial-Unicode, Arial, Sans-serif"></text><text x="0" y="110" fill="#000000" font-size="5px" font-weight="bold" font-family="'Helvetica Neue', Helvetica, Arial-Unicode, Arial, Sans-serif"></text></svg>